<svg xmlns="http://www.w3.org/2000/svg" viewBox="0 0 1042 511">
  <g fill="#a2d31a">
    <path d="M1000.16 6.16c4.53-2.44 10.24-2.29 14.79-.02 4.08 2.28 5.97 6.84 6.97 11.18 2.57 7.26.94 15.14 2.9 22.54 2.36 8.19 1.18 16.84 3.09 25.1 2.17 9.64.59 19.69 2.58 29.37 1.62 7.11.88 14.44 1.01 21.67.1 19-.06 38 .04 57 .04 3.59-.42 7.17-1.14 10.68-1.45 7.04-1.31 14.26-1.43 21.4.04 3.88-1.92 7.39-2.25 11.21-.38 4.06-.06 8.23-1.32 12.17-2.09 6.33-1.25 13.19-3.46 19.5-1.26 7.31-3.03 14.52-4.2 21.85-2.7 10.88-5.57 21.73-8.44 32.57-4.47 11.81-7.2 24.23-12.34 35.8-3.18 7.96-6.92 15.66-10.42 23.47-6.97 12.89-14.66 25.53-24.15 36.75-9.32 12.84-21.21 23.55-33.38 33.62-6.56 5.9-14.21 10.38-21.32 15.55-8.96 6.11-18.85 10.63-28.33 15.82-10.54 4.22-20.92 8.88-31.71 12.45-9.97 3.94-20.5 6.09-30.76 9.06-3.69 1.46-7.72 1.4-11.53 2.35-6.11 1.84-12.55 2.16-18.65 4.05-10.93 2.05-21.42 6.63-32.68 6.69-4.95.06-10.16 1.03-14.87-.95-6.87-5.39-11.55-12.94-16-20.31-5.06-8.36-7.59-17.88-11.12-26.92-7.18-18.55-10.7-38.21-14.37-57.67-2.38-10.3-3.11-20.86-3.86-31.37-.32-13.92-.06-27.85-.2-41.77-.05-7.92.5-16.13 4.1-23.33 4.2-8.82 12.3-15.6 21.67-18.33 7.37-2.2 15.26-2.57 22.86-1.44 7.08 1.09 13.97 4.99 17.53 11.36 4.09 7.18 4.36 15.71 4.55 23.76 0 33.54.01 67.08-.07 100.62 8.48-.06 16.96-.13 25.44-.05.02-36.87-.05-73.74.03-110.62.15-9.52-.85-19.49-5.87-27.81-4.85-8.55-13.45-14.44-22.76-17.19-18.93-5.51-40.65-4.15-57.12 7.42 1.42-7.03 3.93-13.78 6.9-20.29 3.37-9.06 8.05-17.52 11.99-26.33 4.25-8.24 9.33-16 14.02-23.99 15.09-22.99 35.06-42.15 54.84-61.06 13.42-12.38 27.62-23.89 42.27-34.78 7.85-6.59 16.86-11.59 24.92-17.89 19.82-12.85 40.1-25 60.94-36.12 12.33-6.04 24.2-13.04 37.01-18.05 5.71-2.65 11.49-5.14 17.22-7.76 8.38-4.39 17.6-6.8 26.08-10.96M860.35 260.37c-13.76 6.88-24.79 18.64-31.53 32.4-8.18 16.4-10.44 35.34-8 53.39 2.02 15.98 6.85 32.17 17.28 44.76 10.56 12.94 26.42 21.02 42.91 23.02 18.55 2.29 38.61.23 54.42-10.51 13.92-9.12 22.24-24.92 24.92-41.06-8.29.01-16.58-.01-24.86.03-1.57 5.39-3.31 10.86-6.64 15.45-5.13 7.39-13.51 12.01-22.22 13.69-7.38 1.4-15.01 1.36-22.41.19-12.46-2.03-24.1-9.45-30.53-20.41-5.38-8.88-6.96-19.43-7.04-29.65 38.76-.13 77.53-.11 116.29-.01.44-19.99-2.93-40.76-13.65-57.97-8.97-14.52-23.56-26.18-40.57-29.33-16.19-3.04-33.59-1.61-48.37 6.01Z"/>
    <path d="M865.35 283.31c10.28-7.57 23.91-9.6 36.23-6.88 11.95 2.75 22.63 10.74 28.38 21.61 3.62 6.44 5.21 13.75 6.14 21.01-29.8.23-59.6.16-89.4.03 1.08-13.75 7.17-27.63 18.65-35.77Z"/>
  </g>
  <g fill="#97bf15">
    <path d="M551.99 148.92c4.29-3.14 10.18-2.81 14.84-.69 13.86 6.09 27.44 12.81 40.63 20.22 9.45 4.64 18.33 10.33 27.27 15.88 7.74 6.09 16.86 10.13 24.4 16.52 12.39 8.02 23.21 18.1 34.53 27.5 6.28 4.27 11.3 10.03 17.21 14.75-2.97 6.51-5.48 13.26-6.9 20.29-5.79 4.11-10.28 9.67-14.42 15.37-2.76-6.47-6.13-13.09-12.07-17.21-9.96-6.99-22.56-9.24-34.53-8.62-13.06.56-26.22 5.16-35.85 14.19-4.02 3.66-7.35 7.98-10.87 12.1-.15-7.54-.06-15.08-.11-22.61-8.05-.15-16.11-.17-24.16.04-.07 51.44.08 102.88-.07 154.33-5.09-8.18-8.88-17.02-13.29-25.56-2.52-5.33-3.98-11.08-6.44-16.44-3.91-10.57-5.85-21.69-8.65-32.58-2.25-7.1-1.47-14.69-3.22-21.89-1.55-6.03-.94-12.37-2.52-18.39-2.02-7.21-1.18-14.76-1.14-22.13.39-8.67-.26-17.33.14-25.99.35-10.73-1.62-21.68 1.13-32.21 1.54-6.75.59-13.74 1.59-20.53 1.49-4.79 2.25-9.74 2.35-14.75-.04-5.64 2.29-10.92 2.57-16.52.36-5.71 2.53-11.88 7.58-15.07Z"/>
    <path d="M618.71 280.69c8.65-5.26 19.35-6.46 29.17-4.54 7.26 1.44 13.79 6.35 16.76 13.19 4.53 9.92 3.14 21.09 3.32 31.66.12 30.31-.28 60.62.2 90.92 8.61.22 17.22.13 25.83.09.43-17.09-.6-34.16-.18-51.24.75 10.51 1.48 21.07 3.86 31.37 3.67 19.46 7.19 39.12 14.37 57.67 3.53 9.04 6.06 18.56 11.12 26.92 4.45 7.37 9.13 14.92 16 20.31-5.94 1.41-12.15 1.75-18.2.82-13.77-2.08-27.45-4.94-40.76-9.1-6.57-1.69-12.98-3.93-19.06-6.95-8.45-2.66-16.17-7.06-24.07-10.97-11.95-6.56-22.68-15.02-33.03-23.83-6.39-4.58-11.03-11-16.48-16.57-5.28-5.86-9.74-12.4-14.62-18.6 8.28.21 16.57.36 24.85-.05.58-32.27.11-64.57.23-96.84.23-14.02 8.78-27.19 20.69-34.26Z"/>
  </g>
  <path fill="#00cfbf" d="M197.11 202.26c14.2.04 28.41.02 42.62.01.06 38.16-.17 76.31.11 114.47 17.66-17.64 34.64-35.95 52.07-53.8 1.47-1.82 3.92-1.54 6-1.62 15.33.08 30.66.07 45.99.03-19.55 18.95-38.96 38.03-58.53 56.95 21.46 32.85 43.48 65.34 64.93 98.2-15.46.09-30.92-.05-46.38.09-2.27-.08-5.26.39-6.39-2.14-13.84-22.34-27.45-44.83-41.35-67.14-4.89 4.73-9.91 9.33-14.71 14.14-1.94 1.59-1.75 4.22-1.8 6.48.09 16.21.04 32.42.05 48.63-14.2-.04-28.4-.06-42.6.01-.06-71.44-.04-142.87-.01-214.31ZM55.08 266.14c15.91-8.51 34.7-10.59 52.37-7.81 15.65 2.42 30.22 10.71 40.59 22.64 16.08 18.62 21.74 44.21 20.22 68.31-37.35.09-74.7-.03-112.05.07.78 10.35 2.56 21.59 10.06 29.38 8.11 8.37 20.56 10.44 31.74 9.71 12.68-.7 25.05-8.28 30.41-19.98 12.34.1 24.68-.01 37.02.06-4.62 14.81-12.59 29.3-25.45 38.46-14.98 10.65-33.92 14.17-52.01 13.32-16.98-.63-34.11-6.02-47.27-17.01-13.91-11.55-22.49-28.64-25.52-46.3-3.23-19.26-1.46-39.76 7.28-57.41 6.9-14.28 18.54-26.15 32.61-33.44m8.61 35.53c-4.76 5.79-6.52 13.29-7.46 20.56 23.13.08 46.25.09 69.37 0-1.9-9.33-4.92-19.07-11.99-25.83-7.05-6.53-17.33-7.61-26.5-6.89-9.04.58-17.82 4.99-23.42 12.16Zm369.75-44.22c16.21-1.1 32.96 1.16 47.53 8.64 13.32 6.62 24.39 17.6 31.07 30.9 8.65 16.84 10.68 36.39 8.64 55.01-1.99 17.64-9.36 35-22.24 47.43-12.38 12.08-29.3 18.77-46.36 20.42-17.45 1.69-35.71-.29-51.44-8.43-13.55-6.84-24.61-18.32-31.16-31.99-8.05-16.37-9.79-35.19-7.87-53.14 1.98-17.66 9.2-35.12 22.06-47.62 13.18-13.01 31.44-20.1 49.77-21.22m1.95 32.2c-9.98.93-18.98 7.15-24.14 15.62-6 9.76-7.44 21.51-7.72 32.75.03 12.58 1.63 25.91 8.89 36.55 4.76 7.01 12.37 12.09 20.79 13.38 10.12 1.58 21.39.46 29.69-6.05 8.87-6.71 13.17-17.75 14.77-28.44 1.78-11.55 1.44-23.46-1.18-34.86-2.15-9.11-6.99-17.91-14.83-23.3-7.5-5.48-17.26-6.68-26.27-5.65Z"/>
  <path fill="#fff" d="M607.1 267.12c9.63-9.03 22.79-13.63 35.85-14.19 11.97-.62 24.57 1.63 34.53 8.62 5.94 4.12 9.31 10.74 12.07 17.21 4.14-5.7 8.63-11.26 14.42-15.37 16.47-11.57 38.19-12.93 57.12-7.42 9.31 2.75 17.91 8.64 22.76 17.19 5.02 8.32 6.02 18.29 5.87 27.81-.08 36.88-.01 73.75-.03 110.62-8.48-.08-16.96-.01-25.44.05.08-33.54.07-67.08.07-100.62-.19-8.05-.46-16.58-4.55-23.76-3.56-6.37-10.45-10.27-17.53-11.36-7.6-1.13-15.49-.76-22.86 1.44-9.37 2.73-17.47 9.51-21.67 18.33-3.6 7.2-4.15 15.41-4.1 23.33.14 13.92-.12 27.85.2 41.77-.42 17.08.61 34.15.18 51.24-8.61.04-17.22.13-25.83-.09-.48-30.3-.08-60.61-.2-90.92-.18-10.57 1.21-21.74-3.32-31.66-2.97-6.84-9.5-11.75-16.76-13.19-9.82-1.92-20.52-.72-29.17 4.54-11.91 7.07-20.46 20.24-20.69 34.26-.12 32.27.35 64.57-.23 96.84-8.28.41-16.57.26-24.85.05l-1.06-.01.01-.85c.15-51.45 0-102.89.07-154.33 8.05-.21 16.11-.19 24.16-.04.05 7.53-.04 15.07.11 22.61 3.52-4.12 6.85-8.44 10.87-12.1Zm253.25-6.75c14.78-7.62 32.18-9.05 48.37-6.01 17.01 3.15 31.6 14.81 40.57 29.33 10.72 17.21 14.09 37.98 13.65 57.97-38.76-.1-77.53-.12-116.29.01.08 10.22 1.66 20.77 7.04 29.65 6.43 10.96 18.07 18.38 30.53 20.41 7.4 1.17 15.03 1.21 22.41-.19 8.71-1.68 17.09-6.3 22.22-13.69 3.33-4.59 5.07-10.06 6.64-15.45 8.28-.04 16.57-.02 24.86-.03-2.68 16.14-11 31.94-24.92 41.06-15.81 10.74-35.87 12.8-54.42 10.51-16.49-2-32.35-10.08-42.91-23.02-10.43-12.59-15.26-28.78-17.28-44.76-2.44-18.05-.18-36.99 8-53.39 6.74-13.76 17.77-25.52 31.53-32.4m5 22.94c-11.48 8.14-17.57 22.02-18.65 35.77 29.8.13 59.6.2 89.4-.03-.93-7.26-2.52-14.57-6.14-21.01-5.75-10.87-16.43-18.86-28.38-21.61-12.32-2.72-25.95-.69-36.23 6.88Z"/>
</svg>
