<svg xmlns="http://www.w3.org/2000/svg" viewBox="0 0 791.96631 334.19577">
  <path fill="#a8ce46" d="M639.38751.95597314c2.22-1.02 4.79-1.23 7.16-.6 2.29 1.26999996 3.5 3.75999996 3.68 6.29999996 5.33 35.8099999 5.68 72.8299999-3.08 108.1399969-4.36 17.17-10.26 34.49-21.55 48.44-11.46 14.81-27.82 25.23-45.27 31.6-13.03 4.72-26.71 7.59-40.51 8.86 3.53-2.83 6.67-7.02 6.01-11.8-.27-6.01-5.62-11.2-11.66-11.09-6.86-.41-12.97 6.21-12.02 13.02.2 4.92 4.06 8.62 8.26 10.63-15.76-.17-31.6-4.48-44.82-13.18-15.52-10.13-27.19-25.94-32.31-43.75-7.57-27.49-6.67-56.619997-1.44-84.449997.91-3.84 5.59-6.25 9.15-4.16 21.85 9.78 42.49 22.75 59.52 39.68 4.02-9.34 8.73-18.46 14.99-26.52 9.08-11.53 20.01-21.45 31.44-30.59 21.82-17.25 46.84-29.93 72.45-40.52999986z"/>
  <path fill="#d5d5d5" d="M430.99751 159.81597c6.03-.06 12.07-.05 18.1-.01.13 21.38-.04 42.75.08 64.12 5.12-4.76 11.26-8.74 18.3-9.77 9.73-1.48 20.25.96 27.67 7.63 8.41 7.11 13.22 17.92 13.68 28.86.86 12.28-2.61 25.35-11.62 34.12-11.12 11.61-31.05 13.46-43.93 3.73-1.39-1.01-2.73-2.09-4.06-3.15-.06 2.41-.11 4.83-.18 7.25-6.03.09-12.07.06-18.1.02-.04-44.26-.14-88.53.06-132.8m32.48 71.3c-7.55 2.11-13.1 9-14.61 16.55-2.32 10.41.87 23.23 10.93 28.46 6.83 3.53 15.81 2.97 21.81-2 12.02-9.7 11.55-30.76-.65-40.12-4.89-3.8-11.63-4.6-17.48-2.89zm237.93-58.08c8.06-2.4 16.57 5.44 14.57 13.68-1.1 8.83-13.14 12.68-19.45 6.68-7.01-5.69-4.12-18.62 4.88-20.36zm-46.19 14.78c6.03 0 12.06-.07 18.09.06.27 9.26.02 18.52.11 27.79 4.53.15 9.06.04 13.6.18.17 5.64.1 11.28.07 16.93-4.56.11-9.11.02-13.66.09-.05 19.92.06 39.84-.05 59.75-6.06.05-12.12.04-18.17.02-.13-19.92.06-39.83-.07-59.74-2.51-.03-5.02-.13-7.52-.28.18-5.64-.25-11.29.24-16.92 2.42.06 4.84.07 7.28.03.13-9.3-.08-18.61.08-27.91zm-447.44 35.43c5.5-4.68 11.97-8.63 19.32-9.29 10.21-1.15 21.08 1.99 28.31 9.49 7.61 7.38 11.72 17.86 12.02 28.39.77 11.85-2.8 24.3-11.36 32.81-8.99 9.55-23.84 12.57-36.04 8.07-4.62-1.65-8.46-4.77-12.26-7.76-.27 16.39.22 32.8-.24 49.19-5.95-.02-11.9-.06-17.85.03-.5-39.43-.05-78.9-.23-118.35 6.08-.1 12.16-.13 18.24.02.01 2.46.04 4.93.09 7.4m14.6 7.74c-8.45 2.12-14.31 10.23-15.29 18.66-1.5 9.54 1.68 20.6 10.27 25.87 6.78 4.08 16.13 3.89 22.41-1.09 11.92-9.25 12.16-29.45 1.06-39.41-4.9-4.48-12.14-5.74-18.45-4.03zm78.35-9.39c3.64-3.22 7.51-6.67 12.5-7.45 6.85-1.48 13.83.62 19.76 4.04-2.48 5.55-5.17 11.03-8.12 16.34-1.42.36-2.67-1.05-3.98-1.46-5.4-3.16-13.21-1.7-16.6 3.71-3.41 5.29-3.58 11.83-3.68 17.93-.08 12.64.15 25.29-.11 37.92-6.03.02-12.06.08-18.09-.04-.08-25.59-.02-51.18-.04-76.77 6.04-.11 12.09-.05 18.13-.05.07 1.94.15 3.88.23 5.83zm67.76-7.4c8.35-1.07 17.12-.25 24.76 3.44 10.36 4.98 18.63 14.5 21.43 25.72 1.89 7.69 1.78 15.89-.44 23.5-3.35 11.25-12.26 20.51-23.07 24.9-7.92 3.12-16.72 3.67-25.06 2.18-12.97-2.35-24.15-11.96-29.02-24.12-2.81-7.33-3.48-15.42-2.31-23.16 2.53-16.63 17.13-30.33 33.71-32.46m-.02 16.96c-7.98 2.18-13.88 9.52-15.17 17.58-1.18 7.53-.11 15.91 4.81 21.99 7.98 10.06 25.2 10.27 33.54.57 4.68-5.29 6.18-12.69 5.63-19.58-.4-6.15-2.93-12.34-7.71-16.37-5.67-4.98-13.96-6.16-21.1-4.19zm223.02-16.99c7.83-.97 16.01-.28 23.3 2.9 11.16 4.87 20.1 15 22.86 26.95 1.98 8.94 1.5 18.58-2.15 27.04-4.21 9.5-12.36 17.13-22.02 20.89-8.01 3.02-16.89 3.5-25.25 1.85-10.68-2.12-20.06-9.22-25.64-18.49-5.2-8.7-6.51-19.33-4.93-29.23 2.81-16.44 17.34-29.9 33.83-31.91m.07 16.91c-7.03 1.82-12.62 7.67-14.7 14.55-3.1 10.49-.55 23.99 9.53 29.83 8.49 4.77 20.35 3.83 27.27-3.3 4.54-4.59 6.54-11.17 6.52-17.52.12-6.62-1.89-13.56-6.73-18.27-5.55-5.73-14.36-7.28-21.89-5.29zm162.51-14.43c12.17-4.59 26.32-3.81 37.8 2.38.12 8.06.15 16.12-.02 24.18-3.4-3-6.09-6.78-9.92-9.27-7.21-4.85-17.36-4.92-24.54.03-12.77 8.38-13.81 29-2.5 39.03 7.09 6.52 18.49 6.99 26.53 1.98 4.06-2.59 6.91-6.55 10.42-9.77.18 8.04.15 16.09.03 24.13-8.54 4.33-18.28 6.41-27.81 5.04-11.9-1.2-23.01-8.03-29.48-18.07-5.86-8.92-7.26-20.25-5.25-30.6 2.5-13.1 12.46-24.18 24.74-29.06zm-230.16-.86c6.04-.05 12.09-.06 18.13.01.01 25.6.1 51.19-.04 76.78-6.04.13-12.09.07-18.13.05-.05-25.61-.13-51.22.04-76.84zm171.41.03c6.04-.08 12.08-.1 18.12-.06.05 25.62.16 51.25-.06 76.87-6.03.04-12.06.04-18.09-.01-.05-25.6-.09-51.2.03-76.8z"/>
  <path fill="#f9db57" d="M522.14751 193.82597c-.95-6.81 5.16-13.43 12.02-13.02 6.04-.11 11.39 5.08 11.66 11.09.66 4.78-2.48 8.97-6.01 11.8-2.93 1.13-6.37 1.65-9.41.76-4.2-2.01-8.06-5.71-8.26-10.63zm-510.790004 30.04c12.28-13.37 36.09-13.72 48.31-.06.01-2.68.02-5.36.03-8.03 6.05.01 12.1-.06 18.15.05.09 25.29.04 50.59.03 75.89-.06 9.61-.73 19.92-6.59 27.97-5.24 7.16-13.21 12.24-21.99 13.73-11.75 1.98-24.93.44-34.27-7.53-7.1299997-5.78-10.8899997-14.77-11.6999997-23.75 6.09-.19 12.1699997-.09 18.2599997-.07 1.03 5.67 4.14 11.2 9.57 13.66 8.07 3.74 19.61 2.72 24.71-5.34 4.78-7.69 3.59-17.13 3.84-25.76-4.77 4.48-10.5 8.14-16.99 9.42-10 1.93-21.09-.15-28.91-6.91-8.3299997-6.98-13.03999973-17.66-13.62999973-28.41-1.02-12.44 2.31000003-25.73 11.17999973-34.86m22.08 7.12c-9.35 2.59-14.64 12.53-14.77 21.75-.42 7.57 1.72 15.76 7.57 20.94 7.8 6.96 21.29 6.17 28.07-1.87 4.62-5.12 6.31-12.28 5.94-19.05-.18-6.52-2.61-13.19-7.6-17.57-5.06-4.71-12.65-6.08-19.21-4.2zm92.190004-16.57c8.12-1.32 16.66-.75 24.32 2.38 11.6 4.84 20.86 15.32 23.58 27.67 1.83 8.79 1.35 18.24-2.25 26.54-5.15 11.71-16.3 20.54-28.88 22.9-8.37 1.49-17.24 1.05-25.18-2.17-11.55-4.89-20.680004-15.44-23.330004-27.76-1.87-8.97-1.48-18.65 2.41-27.05 5.470004-11.56 16.660004-20.38 29.330004-22.51m.92 16.87c-5.32 1.63-9.79 5.59-12.34 10.5-3.16 6.09-3.44 13.35-1.91 19.94 1.51 6.73 6.32 12.77 12.87 15.16 8.11 3.02 18.22 1.61 24.34-4.8 4.98-5.05 6.8-12.44 6.41-19.37-.22-6.18-2.48-12.47-7.08-16.74-5.78-5.61-14.74-6.95-22.29-4.69z"/>
</svg>
